:SAMPLES-PER-SECOND 25
:FULLY-SPECIFIED
:DEGREES
416
root  12.1153 66.6819 -10.0422 -1.4829 -1.75954 -3.00303
RightUpLeg  -6.26078 4.01409 7.86412
RightLeg  17.4313 0.168066 -0.568806
RightFoot  -6.01344 0.107106 -3.17452
RightToes  2.84633e-005 7.89722e-005 -0.000426369
Spine  2.47927 1.33861 4.35306
Spine1  5.03784 2.69748 4.88745
HEad  18.6116 -5.79718 -5.39897
LeftShoulder1  -3.88251e-019 0 -3.92111e-022
LeftArm  -37.8131 6.86408 -80.857
LeftForeArm  19.4827 1.48456 2.56109
LeftHand  -0.742574 -4.43324 9.05131
RightShoulder  7.45443e-017 -2.42657e-020 1.96277e-018
RightArm  -24.2329 -14.0752 72.7078
RightForeArm  24.1775 9.41374 8.97754
RightHand  -1.47583 10.7112 -10.988
LeftUpLeg  -26.9814 0.932798 1.39702
LeftLeg  56.4123 4.31868 7.48727
LeftFoot  -2.47527 -0.572412 7.56475
LeftToes  3.91355e-005 3.11907e-005 -4.10385e-006
417
root  12.2194 66.7527 -9.24882 -1.70674 -2.39811 -3.05237
RightUpLeg  -3.50288 3.431 7.82464
RightLeg  15.1618 1.30319 -0.405877
RightFoot  -6.12317 0.125579 -3.66185
RightToes  2.84633e-005 7.89722e-005 -0.000426369
Spine  2.45188 1.53648 4.00964
Spine1  5.04799 2.95799 4.97033
HEad  18.7092 -5.50302 -5.37058
LeftShoulder1  -3.88251e-019 0 -3.92111e-022
LeftArm  -37.8334 6.46271 -80.5219
LeftForeArm  19.8136 2.14395 2.19928
LeftHand  -0.775939 -4.17632 9.6826
RightShoulder  7.45443e-017 -2.42657e-020 1.96277e-018
RightArm  -24.7888 -12.0038 72.8378
RightForeArm  25.7212 8.18094 8.7618
RightHand  -1.54964 10.7937 -11.4583
LeftUpLeg  -25.9668 0.879863 1.85023
LeftLeg  45.0414 4.54159 5.29366
LeftFoot  -1.2972 -0.637274 7.32986
LeftToes  3.91355e-005 3.11907e-005 -4.10385e-006
418
root  12.3262 66.8042 -8.43378 -1.6655 -2.86673 -3.25848
RightUpLeg  -0.891513 2.95123 7.80651
RightLeg  12.6788 2.0994 -0.329463
RightFoot  -6.46511 0.10648 -3.52324
RightToes  2.84633e-005 7.89722e-005 -0.000426369
Spine  2.2941 1.59129 3.54741
Spine1  4.74781 2.99301 5.16809
HEad  19.3485 -5.01677 -5.4542
LeftShoulder1  -3.88251e-019 0 -3.92111e-022
LeftArm  -37.9985 6.80752 -80.8075
LeftForeArm  20.5455 2.20228 1.95358
LeftHand  -0.829515 -3.87648 10.6436
RightShoulder  7.45443e-017 -2.42657e-020 1.96277e-018
RightArm  -25.101 -10.0987 72.9398
RightForeArm  28.7167 6.52278 8.14823
RightHand  -1.47065 10.4464 -11.122
LeftUpLeg  -23.5808 0.608908 2.40593
LeftLeg  30.6606 2.6789 2.08118
LeftFoot  1.49282 -0.728876 6.40689
LeftToes  3.91355e-005 3.11907e-005 -4.10385e-006
419
root  12.4348 66.8788 -7.62363 -1.30252 -3.73226 -3.11329
RightUpLeg  1.04936 3.01171 7.42304
RightLeg  10.7398 2.83847 -0.36671
RightFoot  -6.69844 0.0883619 -3.29355
RightToes  2.84633e-005 7.89722e-005 -0.000426369
Spine  2.04513 1.74319 2.76553
Spine1  4.20112 3.33586 5.07174
HEad  20.2627 -4.64398 -5.52008
LeftShoulder1  -3.88251e-019 0 -3.92111e-022
LeftArm  -38.2569 7.63503 -81.6435
LeftForeArm  21.0206 2.17498 2.00464
LeftHand  -0.82015 -3.75449 10.6597
RightShoulder  7.45443e-017 -2.42657e-020 1.96277e-018
RightArm  -25.0047 -9.09162 73.071
RightForeArm  31.0549 5.08232 7.28912
RightHand  -1.37519 10.2658 -10.5464
LeftUpLeg  -19.9469 0.681485 2.46716
LeftLeg  14.6455 -0.821508 0.370711
LeftFoot  4.89829 -0.62448 4.19734
LeftToes  3.91355e-005 3.11907e-005 -4.10385e-006
420
root  12.582 66.8517 -6.71577 -1.14174 -4.8567 -2.95414
RightUpLeg  2.35698 3.20806 6.87494
RightLeg  10.8176 3.69274 -0.117219
RightFoot  -7.61473 0.0605659 -3.45656
RightToes  2.84633e-005 7.89722e-005 -0.000426369
Spine  1.89317 1.87643 2.07198
Spine1  3.82742 3.65262 4.90807
HEad  20.7922 -4.34441 -5.4833
LeftShoulder1  -3.88251e-019 0 -3.92111e-022
LeftArm  -38.4557 8.60294 -82.5679
LeftForeArm  20.4883 2.18653 2.01887
LeftHand  -0.768645 -3.77908 9.98363
RightShoulder  7.45443e-017 -2.42657e-020 1.96277e-018
RightArm  -25.0434 -8.75423 73.3067
RightForeArm  31.7268 4.25215 6.6261
RightHand  -1.40629 10.3981 -10.6882
LeftUpLeg  -16.6692 1.16459 2.23567
LeftLeg  3.58641 -3.10323 0.755029
LeftFoot  7.33852 -0.419781 2.28507
LeftToes  3.91355e-005 3.11907e-005 -4.10385e-006
421
root  12.7683 66.7929 -5.63144 -1.39189 -5.49021 -2.57768
RightUpLeg  4.15503 2.99629 5.97134
RightLeg  11.3056 4.52024 0.116778
RightFoot  -9.2326 -0.00515368 -3.11032
RightToes  2.84633e-005 7.89722e-005 -0.000426369
Spine  1.82647 1.75202 1.68212
Spine1  3.65821 3.39752 4.36102
HEad  21.1504 -4.11976 -5.3759
LeftShoulder1  -3.88251e-019 0 -3.92111e-022
LeftArm  -38.886 9.30429 -83.2898
LeftForeArm  19.6298 2.19346 2.2747
LeftHand  -0.70912 -4.08201 8.95752
RightShoulder  7.45443e-017 -2.42657e-020 1.96277e-018
RightArm  -25.2288 -9.06115 73.5528
RightForeArm  31.2865 4.17326 6.51728
RightHand  -1.4801 10.4447 -11.1935
LeftUpLeg  -15.2909 0.830085 1.57266
LeftLeg  2.11527 -2.68366 1.1965
LeftFoot  7.62429 -0.418256 2.22573
LeftToes  3.91355e-005 3.11907e-005 -4.10385e-006
422
root  12.967 66.7828 -4.43368 -1.71305 -5.51248 -1.13373
RightUpLeg  6.19576 2.92405 4.06255
RightLeg  11.6101 4.73959 -0.0281944
RightFoot  -10.8356 -0.0631188 -2.42268
RightToes  2.84633e-005 7.89722e-005 -0.000426369
Spine  1.68419 1.48135 0.928459
Spine1  3.33512 2.85143 2.89974
HEad  21.8169 -4.17516 -5.06937
LeftShoulder1  -3.88251e-019 0 -3.92111e-022
LeftArm  -39.6379 9.78997 -83.8788
LeftForeArm  19.1383 2.18501 3.05432
LeftHand  -0.660192 -4.28483 8.19612
RightShoulder  7.45443e-017 -2.42657e-020 1.96277e-018
RightArm  -25.6559 -10.464 73.6208
RightForeArm  30.7435 4.84009 6.97288
RightHand  -1.42627 10.259 -10.9232
LeftUpLeg  -13.5999 -0.250906 -0.368559
LeftLeg  2.84929 -1.24078 1.29039
LeftFoot  7.51823 -0.635693 3.56202
LeftToes  3.91355e-005 3.11907e-005 -4.10385e-006
423
root  13.1816 66.6898 -3.19394 -2.0585 -5.34018 0.800637
RightUpLeg  7.1235 4.40723 1.88279
RightLeg  14.3677 3.00702 0.0621254
RightFoot  -12.6497 -0.11158 -2.30274
RightToes  2.84633e-005 7.89722e-005 -0.000426369
Spine  1.47859 1.30607 0.000743664
Spine1  2.88523 2.47557 1.17644
HEad  22.6178 -4.78987 -4.45868
LeftShoulder1  -3.88251e-019 0 -3.92111e-022
LeftArm  -40.1498 10.3873 -84.3301
LeftForeArm  18.9586 2.18594 3.6403
LeftHand  -0.652947 -3.97541 8.36213
RightShoulder  7.45443e-017 -2.42657e-020 1.96277e-018
RightArm  -26.3454 -12.7326 73.6903
RightForeArm  30.0143 5.99577 7.58274
RightHand  -1.28165 10.0242 -10.0042
LeftUpLeg  -12.6434 -1.56297 -2.75096
LeftLeg  5.41682 0.1542 1.02245
LeftFoot  5.06961 -0.752451 5.0055
LeftToes  3.91355e-005 3.11907e-005 -4.10385e-006
424
root  13.3947 66.6363 -2.05127 -2.52005 -5.13724 2.50099
RightUpLeg  6.56907 5.00814 -0.308987
RightLeg  19.8344 1.93173 0.546345
RightFoot  -13.4435 -0.0976765 -0.762208
RightToes  2.84633e-005 7.89722e-005 -0.000426369
Spine  1.44985 1.27309 -1.02345
Spine1  2.76948 2.3267 -0.378517
HEad  23.1321 -6.02567 -3.66735
LeftShoulder1  -3.88251e-019 0 -3.92111e-022
LeftArm  -40.0187 10.7525 -84.406
LeftForeArm  19.9249 2.16988 3.51522
LeftHand  -0.671696 -3.60344 8.92262
RightShoulder  7.45443e-017 -2.42657e-020 1.96277e-018
RightArm  -27.0216 -14.9969 74.0358
RightForeArm  29.1273 6.80396 7.84109
RightHand  -1.19778 9.92894 -9.43429
LeftUpLeg  -11.3331 -2.39764 -4.77868
LeftLeg  7.15498 1.11961 0.538987
LeftFoot  2.18956 -0.635761 5.2307
LeftToes  3.91355e-005 3.11907e-005 -4.10385e-006
425
root  13.6325 66.5479 -1.05065 -2.64681 -5.31469 3.29502
RightUpLeg  3.00435 2.96547 -2.32029
RightLeg  29.4306 3.22391 1.76396
RightFoot  -10.9429 -0.0880548 3.07932
RightToes  2.84633e-005 7.89722e-005 -0.000426369
Spine  1.45163 1.44448 -1.84862
Spine1  2.70468 2.52612 -1.22868
HEad  23.2933 -7.08427 -3.0382
LeftShoulder1  -3.88251e-019 0 -3.92111e-022
LeftArm  -39.5068 10.4814 -84.1755
LeftForeArm  22.0865 2.13004 3.19101
LeftHand  -0.676567 -3.58507 9.00243
RightShoulder  7.45443e-017 -2.42657e-020 1.96277e-018
RightArm  -27.4447 -16.8841 74.2768
RightForeArm  29.059 6.87863 7.85342
RightHand  -1.14348 9.91639 -9.0332
LeftUpLeg  -10.5995 -2.45435 -5.90199
LeftLeg  9.14769 1.67371 0.103666
LeftFoot  -0.411016 -0.469163 4.91564
LeftToes  3.91355e-005 3.11907e-005 -4.10385e-006
426
root  13.8647 66.3313 -0.196709 -2.59271 -5.89131 4.00136
RightUpLeg  -3.5684 0.679962 -4.26028
RightLeg  42.6199 3.01992 2.68552
RightFoot  -3.59833 -0.365619 5.03613
RightToes  2.84633e-005 7.89722e-005 -0.000426369
Spine  1.51565 1.64062 -2.57266
Spine1  2.77681 2.77774 -1.80067
HEad  22.9207 -7.37809 -2.85834
LeftShoulder1  -3.88251e-019 0 -3.92111e-022
LeftArm  -38.9107 9.87249 -84.0389
LeftForeArm  23.0922 2.1191 2.73247
LeftHand  -0.666035 -3.73786 8.72795
RightShoulder  7.45443e-017 -2.42657e-020 1.96277e-018
RightArm  -27.3907 -18.138 73.9203
RightForeArm  29.795 6.88716 8.03027
RightHand  -1.05068 9.84008 -8.37387
LeftUpLeg  -10.7021 -2.2732 -7.01957
LeftLeg  11.8491 2.26543 -0.0437716
LeftFoot  -2.92138 -0.389127 5.52175
LeftToes  3.91355e-005 3.11907e-005 -4.10385e-006
